<svg width="745" height="748" viewBox="0 0 745 748" fill="none" xmlns="http://www.w3.org/2000/svg">
<g clip-path="url(#clip0)">
<path d="M105.187 360.333L109.648 362.736L124.831 370.918L149.341 384.124L163.624 357.623C164.97 355.133 165.811 352.402 166.099 349.586C166.388 346.771 166.118 343.926 165.306 341.215C164.494 338.503 163.155 335.979 161.366 333.786C159.577 331.593 157.373 329.774 154.881 328.434C149.554 325.557 143.451 324.446 137.452 325.26C131.453 326.074 125.867 328.771 121.499 332.963L121.492 332.97C119.343 335.034 117.529 337.421 116.116 340.045L105.187 360.333Z" fill="#2F2E41"/>
<path d="M172.084 630.603L169.09 663.542L157.86 665.039L150.374 627.608L172.084 630.603Z" fill="#FFB8B8"/>
<path d="M154.865 665.04C154.865 665.04 169.089 657.553 172.084 663.542C172.084 663.542 169.838 681.509 178.822 683.755C187.805 686.001 191.548 701.722 178.822 703.22C166.095 704.717 157.86 700.225 153.368 700.225C148.876 700.225 153.368 684.504 153.368 684.504L154.865 665.04Z" fill="#333333"/>
<path d="M81.4998 630.603L84.4948 663.542L95.7238 665.039L103.21 627.608L81.4998 630.603Z" fill="#FFB8B8"/>
<path d="M98.7184 665.04C98.7184 665.04 84.4944 657.553 81.4999 663.542C81.4999 663.542 83.7458 681.509 74.7623 683.755C65.7787 686.001 62.0356 701.722 74.7623 703.22C87.4889 704.717 95.7239 700.225 100.216 700.225C104.707 700.225 100.216 684.504 100.216 684.504L98.7184 665.04Z" fill="#333333"/>
<path d="M142.887 366.337C153.637 366.337 162.352 357.622 162.352 346.872C162.352 336.122 153.637 327.408 142.887 327.408C132.138 327.408 123.423 336.122 123.423 346.872C123.423 357.622 132.138 366.337 142.887 366.337Z" fill="#FFB8B8"/>
<path d="M80.7512 385.052L96.4724 409.757L115.188 408.26L145.882 410.506C145.882 410.506 148.779 404.711 151.145 399.074C152.44 396.259 153.436 393.316 154.117 390.293C154.865 385.052 144.385 379.812 144.385 379.812C144.385 379.812 143.973 379.737 143.284 379.572C142.371 379.355 140.963 378.996 139.421 378.472C135.94 377.289 131.755 375.283 130.909 372.326C129.412 367.085 140.641 359.599 140.641 359.599L127.166 346.872C127.166 346.872 115.196 363.499 100.657 367.287C99.8144 367.51 98.9595 367.685 98.0969 367.811C98.052 367.819 98.0146 367.826 97.9696 367.834C82.2485 370.08 80.7512 385.052 80.7512 385.052Z" fill="#FFB8B8"/>
<path d="M88.9862 378.315L80.7513 385.052C80.7513 385.052 74.0136 417.243 76.2595 426.227C78.5054 435.211 75.5109 443.445 75.5109 444.943C75.5109 446.44 68.7732 502.587 68.7732 502.587C68.7732 502.587 55.2979 532.532 69.5219 529.538C83.7458 526.543 78.5054 496.598 78.5054 496.598L95.7239 444.194V400.025L88.9862 378.315Z" fill="#FFB8B8"/>
<path d="M148.128 384.304L154.117 388.795L157.111 451.68L179.57 505.582C179.57 505.582 196.04 531.784 185.559 532.532C175.078 533.281 168.341 505.582 168.341 505.582L148.128 453.926L145.133 403.768L148.128 384.304Z" fill="#FFB8B8"/>
<path d="M110.696 388.795C110.696 388.795 125.669 399.276 149.625 395.533C149.625 395.533 156.363 409.008 152.62 416.495C148.877 423.981 157.111 441.948 158.609 444.194C160.106 446.44 177.324 492.855 183.313 543.013C189.302 593.171 205.772 627.608 191.548 632.1C177.324 636.592 148.128 641.832 145.133 637.34C142.139 632.849 137.647 521.303 137.647 521.303L129.412 563.975C129.412 563.975 140.642 636.592 132.407 638.089C124.172 639.586 72.5163 635.094 74.0136 626.111C75.5108 617.127 90.4834 569.964 90.4834 569.964C90.4834 569.964 89.7348 475.636 104.707 457.669C104.707 457.669 110.696 447.937 102.462 435.21C94.2267 422.484 94.9753 402.271 94.9753 402.271C94.9753 402.271 100.964 402.271 110.696 388.795Z" fill="#6AB7FF"/>
<path d="M98.0969 367.811L110.697 395.533L113.691 394.036L100.657 367.287L98.0969 367.811Z" fill="#6AB7FF"/>
<path d="M139.421 378.472L148.876 399.276L151.145 399.074L150.374 395.533L143.284 379.572C142.371 379.355 140.963 378.996 139.421 378.472Z" fill="#6AB7FF"/>
<path d="M109.648 362.736C110.368 365.052 111.755 367.104 113.636 368.635C115.517 370.166 117.808 371.108 120.222 371.343C122.636 371.578 125.065 371.095 127.206 369.956C129.347 368.816 131.104 367.07 132.257 364.937C122.787 352.554 130.909 344.776 146.294 338.892C147.453 336.741 147.945 334.294 147.709 331.863C147.473 329.431 146.519 327.125 144.969 325.237C140.728 324.695 136.42 325.107 132.359 326.443C128.299 327.78 124.588 330.008 121.499 332.963L121.492 332.97L110.562 353.243C109.783 354.684 109.301 356.267 109.145 357.897C108.988 359.527 109.159 361.173 109.648 362.736V362.736Z" fill="#2F2E41"/>
<path d="M131.284 353.61C132.731 353.61 133.904 351.599 133.904 349.118C133.904 346.637 132.731 344.626 131.284 344.626C129.837 344.626 128.664 346.637 128.664 349.118C128.664 351.599 129.837 353.61 131.284 353.61Z" fill="#FFB8B8"/>
<path d="M139.092 341.789L161.596 351.985L165.721 342.882C165.01 339.555 163.522 336.443 161.379 333.801L145.889 326.786L139.092 341.789Z" fill="#2F2E41"/>
<path d="M673.017 635.008L679.427 609.169C690.79 604.245 702.417 599.981 714.25 596.397L715.059 608.405L718.34 595.175C733.016 590.887 743 589 743 589C743 589 729.517 641.423 701.229 681.5L668.27 687.419L693.875 691.193C690.316 695.569 686.492 699.713 682.425 703.599C641.278 742.642 595.447 760.555 580.06 743.608C564.673 726.662 585.556 681.275 626.703 642.237C639.459 630.133 655.483 620.42 671.524 612.774L673.017 635.008Z" fill="#F2F2F2"/>
<path d="M611.822 607.315L604.265 581.824C611.481 571.611 619.254 561.823 627.546 552.507L634.29 562.353L630.421 549.301C640.786 537.886 648.356 531 648.356 531C648.356 531 663.274 582.972 659.339 632.198L634.193 654.667L657.953 644.374C657.121 649.998 655.946 655.564 654.432 661.037C638.997 716.17 608.912 755.698 587.237 749.326C565.562 742.954 560.502 693.094 575.938 637.962C580.722 620.87 589.503 604.098 599.338 589.086L611.822 607.315Z" fill="#F2F2F2"/>
<path d="M234 183.039H238.011V70.9034C238.011 62.3801 239.656 53.9404 242.852 46.0659C246.048 38.1915 250.732 31.0366 256.638 25.0098C262.543 18.9829 269.554 14.2022 277.27 10.9405C284.986 7.67877 293.256 6 301.607 6H534.404C551.271 6 567.446 12.838 579.373 25.0098C591.3 37.1815 598 53.6899 598 70.9034V686.097C598 694.62 596.355 703.06 593.159 710.934C589.963 718.809 585.279 725.963 579.373 731.99C573.468 738.017 566.457 742.798 558.741 746.06C551.025 749.321 542.755 751 534.404 751H301.607C284.741 751 268.565 744.162 256.638 731.99C244.712 719.818 238.012 703.31 238.012 686.097V262.859H234.001L234 183.039Z" fill="#E6E6E6"/>
<path d="M299.363 23H329.664C328.271 26.4955 327.739 30.288 328.115 34.0434C328.492 37.7988 329.766 41.4018 331.824 44.5349C333.883 47.6681 336.663 50.2352 339.919 52.0102C343.176 53.7852 346.81 54.7135 350.5 54.7133H483.5C487.19 54.7131 490.823 53.7846 494.08 52.0095C497.336 50.2344 500.116 47.6672 502.174 44.5341C504.233 41.401 505.506 37.7982 505.883 34.0429C506.259 30.2877 505.727 26.4954 504.334 23H532.637C545.199 23 557.246 28.1049 566.128 37.1915C575.01 46.2782 580 58.6025 580 71.453V685.547C580 698.398 575.01 710.722 566.128 719.808C557.246 728.895 545.199 734 532.637 734H299.363C286.801 734 274.754 728.895 265.872 719.808C256.99 710.722 252 698.398 252 685.547V685.547V71.452C252 58.6016 256.99 46.2777 265.872 37.1912C274.755 28.1047 286.801 23 299.363 23V23Z" fill="white"/>
<path d="M446.004 267.501C446.005 263.2 444.896 258.974 442.788 255.25C440.681 251.525 437.65 248.433 434 246.284C437.648 244.133 441.787 243 445.999 243C450.212 243 454.351 244.131 457.999 246.281C461.648 248.432 464.678 251.525 466.784 255.249C468.891 258.974 470 263.199 470 267.5C470 271.801 468.891 276.026 466.784 279.751C464.678 283.475 461.648 286.568 457.999 288.719C454.351 290.869 450.212 292 445.999 292C441.787 292 437.648 290.867 434 288.716C437.65 286.568 440.681 283.476 442.788 279.752C444.895 276.028 446.004 271.802 446.004 267.501V267.501Z" fill="#CCCCCC"/>
<path d="M415.67 284.501C415.671 280.2 414.593 275.974 412.544 272.25C410.496 268.525 407.549 265.433 404 263.284C407.547 261.133 411.57 260 415.666 260C419.762 260 423.786 261.131 427.333 263.281C430.88 265.432 433.826 268.525 435.874 272.249C437.922 275.974 439 280.199 439 284.5C439 288.801 437.922 293.026 435.874 296.751C433.826 300.475 430.88 303.568 427.333 305.719C423.786 307.869 419.762 309 415.666 309C411.57 309 407.547 307.867 404 305.716C407.548 303.568 410.495 300.476 412.544 296.752C414.593 293.028 415.671 288.802 415.67 284.501V284.501Z" fill="#CCCCCC"/>
<path d="M386 309C372.745 309 362 298.031 362 284.5C362 270.969 372.745 260 386 260C399.255 260 410 270.969 410 284.5C410 298.031 399.255 309 386 309Z" fill="#6AB7FF"/>
<path d="M346.025 344H485.975C487.307 343.998 488.584 343.458 489.526 342.497C490.468 341.536 490.998 340.233 491 338.874V196.126C490.998 194.767 490.468 193.464 489.526 192.503C488.584 191.542 487.307 191.002 485.975 191H346.025C344.693 191.002 343.416 191.542 342.474 192.503C341.532 193.464 341.002 194.767 341 196.126V338.874C341.002 340.233 341.532 341.536 342.474 342.497C343.416 343.458 344.693 343.998 346.025 344V344ZM485.975 193.052C486.774 193.052 487.54 193.377 488.106 193.953C488.671 194.53 488.989 195.312 488.99 196.127V338.875C488.989 339.69 488.671 340.472 488.106 341.049C487.54 341.625 486.774 341.95 485.975 341.95H346.025C345.226 341.95 344.46 341.625 343.894 341.049C343.329 340.472 343.011 339.69 343.01 338.875V196.127C343.011 195.312 343.329 194.53 343.894 193.953C344.46 193.377 345.226 193.052 346.025 193.052H485.975Z" fill="#CCCCCC"/>
<path d="M315 453H529V455H315V453Z" fill="#CCCCCC"/>
<path d="M522 440C518.134 440 515 437.09 515 433.5C515 429.91 518.134 427 522 427C525.866 427 529 429.91 529 433.5C529 437.09 525.866 440 522 440Z" fill="#6AB7FF"/>
<path d="M315 522H529V524H315V522Z" fill="#CCCCCC"/>
<path d="M522 509C518.134 509 515 506.09 515 502.5C515 498.91 518.134 496 522 496C525.866 496 529 498.91 529 502.5C529 506.09 525.866 509 522 509Z" fill="#6AB7FF"/>
<path d="M318.438 618H386.562C387.738 617.999 388.867 617.527 389.699 616.689C390.531 615.85 390.999 614.714 391 613.528V589.472C390.999 588.286 390.531 587.15 389.699 586.311C388.867 585.473 387.738 585.001 386.562 585H318.438C317.262 585.001 316.133 585.473 315.301 586.311C314.469 587.15 314.001 588.286 314 589.472V613.528C314.001 614.714 314.469 615.85 315.301 616.689C316.133 617.527 317.262 617.999 318.438 618V618Z" fill="#6AB7FF"/>
<path d="M500 440C496.134 440 493 437.09 493 433.5C493 429.91 496.134 427 500 427C503.866 427 507 429.91 507 433.5C507 437.09 503.866 440 500 440Z" fill="#6AB7FF"/>
<path d="M478 440C474.134 440 471 437.09 471 433.5C471 429.91 474.134 427 478 427C481.866 427 485 429.91 485 433.5C485 437.09 481.866 440 478 440Z" fill="#6AB7FF"/>
<path d="M500 509C496.134 509 493 506.09 493 502.5C493 498.91 496.134 496 500 496C503.866 496 507 498.91 507 502.5C507 506.09 503.866 509 500 509Z" fill="#6AB7FF"/>
<path d="M478 509C474.134 509 471 506.09 471 502.5C471 498.91 474.134 496 478 496C481.866 496 485 498.91 485 502.5C485 506.09 481.866 509 478 509Z" fill="#6AB7FF"/>
</g>
<defs>
<clipPath id="clip0">
<rect width="744.848" height="747.077" fill="white"/>
</clipPath>
</defs>
</svg>
